<?xml version="1.0" encoding="utf-8"?>
<!-- Generator: Adobe Illustrator 16.0.0, SVG Export Plug-In . SVG Version: 6.00 Build 0)  -->
<!DOCTYPE svg PUBLIC "-//W3C//DTD SVG 1.1//EN" "http://www.w3.org/Graphics/SVG/1.1/DTD/svg11.dtd">
<svg version="1.1" id="Layer_1" xmlns="http://www.w3.org/2000/svg" xmlns:xlink="http://www.w3.org/1999/xlink" x="0px" y="0px"
	 width="319.792px" height="595.428px" viewBox="261.049 -0.147 319.792 595.428"
	 enable-background="new 261.049 -0.147 319.792 595.428" xml:space="preserve">
<g>
	<path fill="#FFFFFF" d="M568.602,309.848c-3.022,0-6.162-1.163-8.487-3.488L264.8,20.927c-4.883-4.65-4.999-12.44-0.349-17.323
		s12.44-4.999,17.323-0.349l295.314,285.432c4.884,4.651,5,12.44,0.349,17.324C574.996,308.685,571.858,309.848,568.602,309.848z"/>
	<path fill="#FFFFFF" d="M273.287,595.281c-3.256,0-6.395-1.279-8.836-3.721c-4.65-4.884-4.534-12.673,0.349-17.324l295.314-285.433
		c4.884-4.65,12.673-4.534,17.323,0.35c4.651,4.883,4.535,12.673-0.349,17.323L281.775,591.793
		C279.449,594.118,276.311,595.281,273.287,595.281z"/>
</g>
</svg>
