<?xml version="1.0" encoding="utf-8"?>
<!-- Generator: Adobe Illustrator 16.0.0, SVG Export Plug-In . SVG Version: 6.00 Build 0)  -->
<!DOCTYPE svg PUBLIC "-//W3C//DTD SVG 1.1//EN" "http://www.w3.org/Graphics/SVG/1.1/DTD/svg11.dtd">
<svg version="1.1" id="Layer_1" xmlns="http://www.w3.org/2000/svg" xmlns:xlink="http://www.w3.org/1999/xlink" x="0px" y="0px"
	 width="319.792px" height="595.428px" viewBox="261.049 -0.147 319.792 595.428"
	 enable-background="new 261.049 -0.147 319.792 595.428" xml:space="preserve">
<g>
	<path fill="#FFFFFF" d="M273.288,285.285c3.022,0,6.162,1.163,8.487,3.488L577.09,574.207c4.883,4.65,4.999,12.439,0.349,17.322
		s-12.44,5-17.323,0.35L264.801,306.447c-4.884-4.651-5-12.441-0.349-17.325C266.893,286.448,270.032,285.285,273.288,285.285z"/>
	<path fill="#FFFFFF" d="M568.603-0.147c3.256,0,6.395,1.279,8.836,3.721c4.65,4.884,4.533,12.673-0.35,17.324L281.775,306.331
		c-4.884,4.65-12.673,4.534-17.323-0.35c-4.651-4.883-4.535-12.673,0.349-17.324L560.115,3.341
		C562.441,1.016,565.579-0.147,568.603-0.147z"/>
</g>
</svg>
