<?xml version="1.0" encoding="utf-8"?>
<!-- Generator: Adobe Illustrator 15.0.0, SVG Export Plug-In  -->
<!DOCTYPE svg PUBLIC "-//W3C//DTD SVG 1.1//EN" "http://www.w3.org/Graphics/SVG/1.1/DTD/svg11.dtd" [
	<!ENTITY ns_flows "http://ns.adobe.com/Flows/1.0/">
]>
<svg version="1.1"
	 xmlns="http://www.w3.org/2000/svg" xmlns:xlink="http://www.w3.org/1999/xlink" xmlns:a="http://ns.adobe.com/AdobeSVGViewerExtensions/3.0/"
	 x="0px" y="0px" width="886px" height="908px" viewBox="0 0 886 908" enable-background="new 0 0 886 908" xml:space="preserve">
<defs>
</defs>
<g>
	<defs>
		<rect id="SVGID_1_" x="0" y="0" width="885.55" height="908.482"/>
	</defs>
	<clipPath id="SVGID_2_">
		<use xlink:href="#SVGID_1_"  overflow="visible"/>
	</clipPath>
	<path clip-path="url(#SVGID_2_)" fill="#FFFFFF" d="M334.205,394.912l-41.487,149.316L179.291,132.558
		c-4.265-14.027-4.732-24.098-1.366-30.208c3.346-6.065,13.264-9.142,29.726-9.142V81.326H0v11.882
		c12.174,1.239,20.703,4.58,25.605,10.084c4.874,5.474,8.828,13.698,11.896,24.704l180.203,585.48h90.592l78.723-260.832
		C348.519,422.049,334.205,394.912,334.205,394.912 M605.099,361.845l-62.617-235.696c-1.825-7.908-2.291-14.008-1.374-18.298
		c0.455-2.1,1.154-3.928,2.162-5.469C543.27,102.382,325.828,176.325,605.099,361.845 M537.578,555.674l46.059,157.803h49.569
		C637.837,669.631,617.108,615.508,537.578,555.674 M737.182,501.881l112.672-378.456c3.053-8.551,7.462-15.574,13.267-21.075
		c5.811-5.448,13.266-8.526,22.43-9.142V81.326H731.845v11.882c15.25,0,25.612,3.077,31.115,9.142
		c5.466,6.11,6.072,16.796,1.826,32.036l-77.773,282.725C687.013,417.111,729.639,459.389,737.182,501.881"/>
	<path clip-path="url(#SVGID_2_)" fill="#F8A02A" d="M717.857,618.119c7.412-38.105,5.559-71.633-5.569-100.582
		c-11.074-28.963-26.906-54.494-47.392-76.555c-20.481-22.069-43.579-41.986-69.278-59.693
		c-25.687-17.712-49.316-34.868-70.865-51.489c-21.578-16.583-39.063-33.547-52.402-50.907c-0.209-0.272-0.334-0.534-0.526-0.816
		c-92.781-96.6-25.469-195.953,109.318-197.604c-26.095-4.042-51.486-5.238-76.098-3.198c-28.938,2.407-55.424,9.465-79.489,21.216
		c-24.065,11.748-44.447,28.716-61.148,50.896c-16.705,22.202-28.317,50.109-34.833,83.656c-7.45,38.081-5.628,70.936,5.422,98.516
		c11.056,27.643,26.576,51.908,46.595,72.905c20.058,20.981,42.787,39.956,68.313,57.015c25.478,17.01,48.692,33.732,69.604,50.195
		c2.264,1.822,4.302,3.637,6.493,5.445c133.71,84.863,145.445,160,124.93,213.297c13.598-10.381,25.366-21.99,34.836-35.176
		C701.373,673.5,712.099,647.797,717.857,618.119"/>
	<path clip-path="url(#SVGID_2_)" fill="#F8A02A" d="M697.023,42.674h-45.479L638.647,3.031L637.506,0l-1.146,3.152l-12.857,39.522
		h-45.479l36.359,27.269l-13.808,43.074l36.947-26.638l36.948,26.638l-13.807-43.073L697.023,42.674z M693.447,43.866L659.294,69.48
		l-0.024-0.078l34.047-25.536H693.447z M632.485,55.415l4.893-15.043l0.438-1.198l0.434,1.153l4.908,15.088h17.311l-13.838,10.379
		l5.254,16.394L637.821,72.05l-14.063,10.138l5.255-16.394l-13.839-10.379H632.485z M581.599,43.866h0.13l34.047,25.536
		l-0.024,0.077L581.599,43.866z M672.191,109.808l0.04,0.124l-34.708-25.023l-34.706,25.023l0.041-0.127l34.665-24.993
		L672.191,109.808z"/>
	<path clip-path="url(#SVGID_2_)" fill="#FFFFFF" d="M47.227,838.683h28.394v2.735c-2.614,0.198-4.326,0.666-5.14,1.405
		c-0.813,0.739-1.219,1.8-1.219,3.18c0,1.528,0.418,3.377,1.256,5.545l14.493,38.967l14.566-31.721l-3.844-9.981
		c-1.184-2.958-2.736-5.003-4.658-6.138c-1.086-0.689-3.106-1.108-6.064-1.257v-2.735h32.237v2.735
		c-3.548,0.148-6.062,0.789-7.541,1.923c-0.986,0.789-1.478,2.046-1.478,3.771c0,0.987,0.195,1.997,0.591,3.032l15.38,38.894
		l14.27-37.489c0.986-2.661,1.479-4.78,1.479-6.358c0-0.936-0.481-1.774-1.443-2.515c-0.961-0.739-2.845-1.157-5.656-1.257v-2.735
		h21.369v2.735c-4.289,0.642-7.443,3.55-9.465,8.726l-22.625,58.339h-3.031l-16.933-43.255l-19.743,43.255h-2.734l-21.739-56.935
		c-1.431-3.598-2.835-6.025-4.215-7.283c-1.38-1.257-3.549-2.205-6.507-2.847V838.683z"/>
	<path clip-path="url(#SVGID_2_)" fill="#FFFFFF" d="M193.482,836.687c10.253,0,18.485,3.895,24.696,11.683
		c5.274,6.654,7.912,14.296,7.912,22.921c0,6.063-1.455,12.2-4.363,18.411c-2.908,6.211-6.913,10.896-12.016,14.049
		c-5.101,3.154-10.783,4.732-17.042,4.732c-10.204,0-18.313-4.066-24.327-12.2c-5.078-6.851-7.615-14.541-7.615-23.069
		c0-6.211,1.539-12.385,4.621-18.522c3.08-6.136,7.135-10.672,12.162-13.604C182.54,838.153,187.863,836.687,193.482,836.687
		 M191.19,841.492c-2.613,0-5.238,0.776-7.875,2.329c-2.637,1.553-4.77,4.277-6.396,8.171c-1.626,3.896-2.44,8.897-2.44,15.01
		c0,9.859,1.96,18.362,5.879,25.511c3.918,7.146,9.082,10.72,15.49,10.72c4.781,0,8.725-1.97,11.83-5.915
		c3.106-3.943,4.658-10.721,4.658-20.334c0-12.026-2.587-21.491-7.763-28.393C201.073,843.858,196.612,841.492,191.19,841.492"/>
	<path clip-path="url(#SVGID_2_)" fill="#FFFFFF" d="M255.887,836.687v15.231c5.668-10.154,11.485-15.231,17.45-15.231
		c2.71,0,4.954,0.825,6.73,2.477c1.773,1.652,2.661,3.562,2.661,5.73c0,1.923-0.642,3.549-1.923,4.88s-2.809,1.996-4.584,1.996
		c-1.727,0-3.66-0.85-5.805-2.551c-2.144-1.7-3.733-2.551-4.768-2.551c-0.888,0-1.849,0.493-2.884,1.479
		c-2.219,2.022-4.51,5.35-6.877,9.982v32.46c0,3.747,0.469,6.581,1.405,8.503c0.64,1.331,1.775,2.44,3.402,3.327
		c1.627,0.888,3.966,1.331,7.024,1.331v2.662h-34.679v-2.662c3.451,0,6.014-0.542,7.691-1.625c1.231-0.789,2.094-2.046,2.588-3.772
		c0.246-0.838,0.37-3.228,0.37-7.172v-26.249c0-7.887-0.161-12.582-0.481-14.086c-0.322-1.503-0.914-2.6-1.775-3.29
		c-0.863-0.69-1.936-1.035-3.217-1.035c-1.527,0-3.253,0.369-5.176,1.108l-0.738-2.661l20.481-8.281H255.887z"/>
	<path clip-path="url(#SVGID_2_)" fill="#FFFFFF" d="M309.791,801.269v89.838c0,4.24,0.308,7.05,0.925,8.429
		c0.615,1.381,1.564,2.429,2.846,3.143c1.281,0.716,3.671,1.072,7.172,1.072v2.662h-33.199v-2.662c3.106,0,5.224-0.319,6.359-0.961
		c1.133-0.64,2.021-1.7,2.662-3.18c0.64-1.479,0.961-4.313,0.961-8.503v-61.519c0-7.641-0.173-12.336-0.518-14.086
		c-0.346-1.749-0.9-2.944-1.664-3.586c-0.764-0.64-1.736-0.961-2.92-0.961c-1.282,0-2.909,0.395-4.88,1.183l-1.257-2.588
		l20.186-8.281H309.791z"/>
	<path clip-path="url(#SVGID_2_)" fill="#FFFFFF" d="M376.411,898.796c-3.303,3.451-6.531,5.929-9.686,7.432
		c-3.155,1.503-6.556,2.255-10.204,2.255c-7.393,0-13.852-3.093-19.372-9.279c-5.521-6.186-8.281-14.135-8.281-23.846
		s3.056-18.597,9.168-26.656c6.111-8.06,13.975-12.089,23.588-12.089c5.963,0,10.892,1.898,14.787,5.693V829.81
		c0-7.738-0.185-12.496-0.555-14.271c-0.369-1.774-0.949-2.982-1.736-3.623c-0.789-0.64-1.775-0.961-2.959-0.961
		c-1.281,0-2.982,0.395-5.102,1.183l-0.961-2.588l20.186-8.281h3.328v78.303c0,7.938,0.185,12.78,0.555,14.529
		c0.369,1.751,0.961,2.971,1.773,3.66c0.815,0.691,1.762,1.035,2.848,1.035c1.33,0,3.105-0.418,5.323-1.257l0.814,2.588
		l-20.112,8.355h-3.402V898.796z M376.411,893.62v-34.899c-0.295-3.352-1.183-6.408-2.661-9.169c-1.48-2.76-3.439-4.843-5.878-6.248
		c-2.44-1.405-4.819-2.107-7.136-2.107c-4.339,0-8.208,1.948-11.608,5.842c-4.487,5.127-6.729,12.619-6.729,22.479
		c0,9.958,2.168,17.585,6.506,22.884c4.338,5.3,9.169,7.949,14.492,7.949C367.883,900.35,372.222,898.106,376.411,893.62"/>
	<path clip-path="url(#SVGID_2_)" fill="#F8A02A" d="M448.059,836.687v23.069h-2.439c-1.875-7.246-4.277-12.175-7.208-14.788
		c-2.934-2.612-6.668-3.919-11.204-3.919c-3.451,0-6.236,0.912-8.355,2.735c-2.119,1.824-3.179,3.845-3.179,6.063
		c0,2.761,0.788,5.127,2.366,7.099c1.528,2.021,4.633,4.166,9.317,6.433l10.795,5.25c10.006,4.88,15.01,11.313,15.01,19.298
		c0,6.163-2.328,11.128-6.986,14.899c-4.658,3.771-9.871,5.656-15.638,5.656c-4.141,0-8.873-0.739-14.198-2.218
		c-1.627-0.492-2.957-0.74-3.992-0.74c-1.135,0-2.021,0.641-2.662,1.923h-2.439v-24.179h2.439
		c1.379,6.902,4.018,12.103,7.912,15.602c3.893,3.501,8.256,5.25,13.087,5.25c3.401,0,6.175-0.998,8.318-2.995
		c2.145-1.996,3.216-4.399,3.216-7.21c0-3.4-1.195-6.259-3.586-8.576c-2.39-2.316-7.16-5.25-14.306-8.799
		c-7.149-3.549-11.831-6.753-14.049-9.612c-2.219-2.81-3.328-6.358-3.328-10.647c0-5.569,1.91-10.228,5.73-13.975
		c3.82-3.746,8.762-5.619,14.826-5.619c2.661,0,5.889,0.566,9.686,1.7c2.514,0.739,4.189,1.109,5.027,1.109
		c0.789,0,1.406-0.173,1.85-0.518s0.961-1.109,1.553-2.292H448.059z"/>
	<path clip-path="url(#SVGID_2_)" fill="#F8A02A" d="M482.885,816.427v22.256h15.823v5.176h-15.823v43.921
		c0,4.388,0.629,7.346,1.886,8.873c1.257,1.528,2.87,2.292,4.843,2.292c1.627,0,3.203-0.505,4.732-1.516
		c1.527-1.01,2.711-2.502,3.549-4.474h2.884c-1.726,4.831-4.165,8.466-7.319,10.906c-3.156,2.439-6.409,3.66-9.761,3.66
		c-2.269,0-4.486-0.629-6.655-1.886s-3.771-3.056-4.805-5.397c-1.036-2.341-1.554-5.952-1.554-10.833v-45.547h-10.722v-2.44
		c2.711-1.083,5.484-2.92,8.318-5.508s5.361-5.657,7.579-9.206c1.134-1.873,2.71-5.299,4.732-10.277H482.885z"/>
	<path clip-path="url(#SVGID_2_)" fill="#F8A02A" d="M543.665,896.652c-6.951,5.373-11.313,8.479-13.088,9.316
		c-2.662,1.231-5.496,1.849-8.503,1.849c-4.684,0-8.54-1.602-11.571-4.807c-3.031-3.203-4.548-7.418-4.548-12.644
		c0-3.302,0.739-6.161,2.218-8.577c2.021-3.352,5.533-6.506,10.537-9.465c5.002-2.957,13.32-6.555,24.955-10.795v-2.662
		c0-6.753-1.072-11.387-3.217-13.9c-2.145-2.515-5.262-3.771-9.354-3.771c-3.105,0-5.57,0.839-7.394,2.515
		c-1.874,1.676-2.81,3.599-2.81,5.767l0.147,4.289c0,2.268-0.58,4.018-1.737,5.25c-1.158,1.232-2.675,1.848-4.547,1.848
		c-1.824,0-3.316-0.64-4.475-1.922c-1.158-1.281-1.737-3.031-1.737-5.25c0-4.239,2.169-8.134,6.507-11.683
		s10.426-5.323,18.264-5.323c6.014,0,10.943,1.011,14.789,3.031c2.906,1.528,5.051,3.919,6.432,7.172
		c0.887,2.12,1.331,6.459,1.331,13.014v22.996c0,6.458,0.122,10.414,0.37,11.867c0.246,1.454,0.652,2.429,1.22,2.921
		c0.565,0.493,1.22,0.739,1.96,0.739c0.787,0,1.479-0.173,2.07-0.518c1.035-0.641,3.031-2.44,5.988-5.397v4.141
		c-5.521,7.394-10.795,11.091-15.823,11.091c-2.415,0-4.338-0.839-5.767-2.514C544.453,903.554,543.713,900.694,543.665,896.652
		 M543.665,891.846V866.04c-7.443,2.958-12.25,5.054-14.418,6.285c-3.894,2.17-6.681,4.437-8.355,6.803
		c-1.677,2.366-2.514,4.954-2.514,7.764c0,3.55,1.059,6.495,3.179,8.836c2.119,2.342,4.56,3.513,7.32,3.513
		C532.622,899.24,537.551,896.775,543.665,891.846"/>
	<path clip-path="url(#SVGID_2_)" fill="#F8A02A" d="M592.318,836.687v15.231c5.668-10.154,11.485-15.231,17.45-15.231
		c2.71,0,4.953,0.825,6.729,2.477c1.774,1.652,2.662,3.562,2.662,5.73c0,1.923-0.642,3.549-1.923,4.88
		c-1.282,1.331-2.81,1.996-4.585,1.996c-1.726,0-3.66-0.85-5.804-2.551c-2.145-1.7-3.733-2.551-4.769-2.551
		c-0.888,0-1.85,0.493-2.885,1.479c-2.218,2.022-4.51,5.35-6.876,9.982v32.46c0,3.747,0.468,6.581,1.405,8.503
		c0.64,1.331,1.773,2.44,3.4,3.327c1.627,0.888,3.967,1.331,7.025,1.331v2.662H569.47v-2.662c3.45,0,6.013-0.542,7.69-1.625
		c1.23-0.789,2.094-2.046,2.588-3.772c0.246-0.838,0.369-3.228,0.369-7.172v-26.249c0-7.887-0.16-12.582-0.48-14.086
		c-0.321-1.503-0.913-2.6-1.775-3.29s-1.935-1.035-3.216-1.035c-1.528,0-3.253,0.369-5.176,1.108l-0.739-2.661l20.481-8.281H592.318
		z"/>
	<path clip-path="url(#SVGID_2_)" fill="#F8A02A" d="M666.702,836.687v23.069h-2.439c-1.875-7.246-4.277-12.175-7.209-14.788
		c-2.934-2.612-6.668-3.919-11.203-3.919c-3.451,0-6.236,0.912-8.355,2.735c-2.119,1.824-3.179,3.845-3.179,6.063
		c0,2.761,0.788,5.127,2.366,7.099c1.527,2.021,4.633,4.166,9.316,6.433l10.795,5.25c10.006,4.88,15.01,11.313,15.01,19.298
		c0,6.163-2.328,11.128-6.986,14.899c-4.658,3.771-9.871,5.656-15.639,5.656c-4.141,0-8.873-0.739-14.197-2.218
		c-1.627-0.492-2.957-0.74-3.992-0.74c-1.135,0-2.021,0.641-2.662,1.923h-2.439v-24.179h2.439
		c1.379,6.902,4.018,12.103,7.912,15.602c3.893,3.501,8.256,5.25,13.087,5.25c3.401,0,6.175-0.998,8.318-2.995
		c2.145-1.996,3.216-4.399,3.216-7.21c0-3.4-1.195-6.259-3.586-8.576c-2.391-2.316-7.16-5.25-14.307-8.799
		c-7.148-3.549-11.831-6.753-14.049-9.612c-2.219-2.81-3.328-6.358-3.328-10.647c0-5.569,1.91-10.228,5.73-13.975
		c3.82-3.746,8.762-5.619,14.826-5.619c2.66,0,5.889,0.566,9.686,1.7c2.514,0.739,4.189,1.109,5.027,1.109
		c0.789,0,1.406-0.173,1.85-0.518s0.961-1.109,1.553-2.292H666.702z"/>
	<path clip-path="url(#SVGID_2_)" fill="#F8A02A" d="M696.056,892.067c2.316,0,4.263,0.802,5.841,2.403
		c1.578,1.603,2.367,3.537,2.367,5.805s-0.803,4.203-2.404,5.804c-1.602,1.602-3.537,2.403-5.804,2.403
		c-2.268,0-4.203-0.802-5.804-2.403c-1.604-1.601-2.404-3.536-2.404-5.804c0-2.316,0.801-4.264,2.404-5.842
		C691.853,892.856,693.789,892.067,696.056,892.067"/>
	<path clip-path="url(#SVGID_2_)" fill="#F8A02A" d="M716.242,838.683h31.868v2.735h-2.07c-1.922,0-3.389,0.47-4.398,1.405
		c-1.012,0.937-1.517,2.194-1.517,3.771c0,1.727,0.518,3.771,1.553,6.138l15.749,37.414l15.824-38.819
		c1.133-2.76,1.7-4.854,1.7-6.285c0-0.689-0.198-1.257-0.591-1.7c-0.543-0.739-1.233-1.244-2.07-1.516
		c-0.84-0.271-2.54-0.407-5.103-0.407v-2.735h22.108v2.735c-2.564,0.198-4.338,0.716-5.325,1.553
		c-1.725,1.479-3.277,3.944-4.657,7.395l-24.03,58.117h-3.032l-24.178-57.156c-1.086-2.662-2.121-4.571-3.105-5.73
		c-0.987-1.157-2.244-2.131-3.771-2.921c-0.839-0.443-2.49-0.861-4.954-1.257V838.683z"/>
	<path clip-path="url(#SVGID_2_)" fill="#F8A02A" d="M815.174,851.03c7.936-9.563,15.502-14.344,22.7-14.344
		c3.696,0,6.876,0.924,9.538,2.772s4.781,4.893,6.359,9.133c1.084,2.956,1.627,7.492,1.627,13.604v28.911
		c0,4.288,0.344,7.197,1.035,8.725c0.541,1.233,1.416,2.194,2.624,2.884c1.208,0.691,3.438,1.035,6.692,1.035v2.662h-33.496v-2.662
		h1.405c3.154,0,5.36-0.48,6.618-1.441c1.256-0.961,2.131-2.378,2.625-4.252c0.195-0.739,0.295-3.056,0.295-6.95v-27.728
		c0-6.161-0.801-10.635-2.402-13.421c-1.604-2.783-4.302-4.177-8.098-4.177c-5.866,0-11.707,3.204-17.523,9.612v35.713
		c0,4.584,0.271,7.419,0.813,8.503c0.691,1.431,1.639,2.478,2.848,3.143c1.207,0.666,3.66,0.998,7.357,0.998v2.662h-33.496v-2.662
		h1.479c3.45,0,5.778-0.874,6.987-2.625c1.207-1.749,1.812-5.089,1.812-10.019v-25.139c0-8.135-0.185-13.089-0.554-14.863
		c-0.37-1.774-0.938-2.981-1.701-3.623c-0.766-0.639-1.787-0.961-3.068-0.961c-1.381,0-3.031,0.369-4.955,1.108l-1.108-2.66
		l20.407-8.282h3.18V851.03z"/>
</g>
</svg>
